-
 
http://www.Speed. Cd       the fast  and The Hottest Private Tracker on the net 
http://www.Speed. Cd

Please Seed back to make the speed Faster!!
 ............ NFO .............
-
 
http://www.Speed. Cd[img]http://img600.imageshack.us/img600/7510/402343bas1nu8x.jpg[/img]
[img]http://img90.imageshack.us/img90/9567/2nbynh1.jpg[/img]


Genre:Action | Drama | Western
Language:English
IMDb:http://www.imdb.com/title/tt1853728/
Source:1080p BluRay x264-SPARKS Thanks
Encoder:Tony

Format                                   : AVI
Format/Info                              : Audio Video Interleave
File size                                : 1.87 GiB
Duration                                 : 2h 45mn
Overall bit rate                         : 1 616 Kbps

Video
ID                                       : 0
Format                                   : MPEG-4 Visual
Format profile                           : Advanced Simple@L5
Format settings, BVOP                    : 1
Format settings, QPel                    : No
Format settings, GMC                     : No warppoints
Format settings, Matrix                  : Default (H.263)
Codec ID                                 : XVID
Codec ID/Hint                            : XviD
Duration                                 : 2h 45mn
Bit rate                                 : 1 223 Kbps
Width                                    : 624 pixels
Height                                   : 264 pixels
Display aspect ratio                     : 2.35:1
Frame rate                               : 23.976 fps
Color space                              : YUV
Chroma subsampling                       : 4:2:0
Bit depth                                : 8 bits
Scan type                                : Progressive
Compression mode                         : Lossy
Bits/(Pixel*Frame)                       : 0.310
Stream size                              : 1.41 GiB (76%)
Writing library                          : XviD 1.2.1 (UTC 2008-12-04)

Audio
ID                                       : 1
Format                                   : AC-3
Format/Info                              : Audio Coding 3
Mode extension                           : CM (complete main)
Codec ID                                 : 2000
Duration                                 : 2h 45mn
Bit rate mode                            : Constant
Bit rate                                 : 384 Kbps
Channel(s)                               : 6 channels
Channel positions                        : Front: L C R, Side: L R, LFE
Sampling rate                            : 48.0 KHz
Bit depth                                : 16 bits
Compression mode                         : Lossy
Stream size                              : 454 MiB (24%)
Alignment                                : Aligned on interleaves
Interleave, duration                     : 42 ms (1.00 video frame)
Interleave, preload duration             : 512 ms

   
Plot:
  With the help of his mentor, a slave-turned-bounty hunter sets out to rescue his wife from a brutal Mississippi plantation owner. 

TRAILER:


Greets:
 CRYS,INSPiRAL,IMAGINE,LKRG,ADTRG,FXG,3Li,FLAWL3SS,CrEwSaDe,TA,iLLUSiON,EMBER,HOPE,GooN,BBnRG,NOGRP,ETRG,BHRG,iLLUMiNATi,MiSTERE.ViSiON,DTRG SAFCuk009,LU,TheFalcon007,MYSTiC,PrisM,Noir,WBZ,LAP,Rx,Kingdom,SAFCuk009+Fabreezy,HDLiTE,TWiZTED,ETRG.ELEKTRI4KA,MAGNAT,CM8
                And to all the other p2p grps past and present